<?xml version="1.0" encoding="utf-8"?>
<svg width="312px" height="312px" viewBox="0 0 312 312" version="1.1" xmlns:xlink="http://www.w3.org/1999/xlink" xmlns="http://www.w3.org/2000/svg">
  <defs>
    <filter filterUnits="userSpaceOnUse" color-interpolation-filters="sRGB" id="filter_1">
      <feFlood flood-opacity="0" result="BackgroundImageFix" />
      <feColorMatrix in="SourceAlpha" type="matrix" values="0 0 0 0 0 0 0 0 0 0 0 0 0 0 0 0 0 0 128 0" />
      <feOffset dx="0" dy="2" />
      <feGaussianBlur stdDeviation="2" />
      <feColorMatrix type="matrix" values="0 0 0 0 0.39215687 0 0 0 0 0.39215687 0 0 0 0 0.39215687 0 0 0 0.49803922 0" />
      <feBlend mode="normal" in2="BackgroundImageFix" result="effect0_dropShadow" />
      <feBlend mode="normal" in="SourceGraphic" in2="effect0_dropShadow" result="shape" />
    </filter>
    <path d="M229.714 121.1L288 0" id="path_1" />
    <path d="M0 223L64.2951 122.352" id="path_2" />
  </defs>
  <g id="Group">
    <path d="M285 0C293.285 0 300 6.7146 300 15L300 285C300 293.285 293.285 300 285 300L15 300C6.7146 300 0 293.285 0 285L0 15C0 6.7146 6.7146 0 15 0L285 0Z" id="Rectangle" fill="#377BF5" stroke="none" filter="url(#filter_1)" />
    <g id="Group" transform="translate(7 39)">
      <path d="M64.3896 122.202L125.158 178.452" id="Path" fill="#D3D3D3" fill-rule="evenodd" stroke="#0842D4" stroke-width="2.5" stroke-linecap="round" />
      <path d="M125.299 178.278L180.676 53.1564" id="Path" fill="#D3D3D3" fill-rule="evenodd" stroke="#0842D4" stroke-width="2.5" stroke-linecap="round" />
      <path d="M180.987 52.641L229.518 120.8" id="Path" fill="#D3D3D3" fill-rule="evenodd" stroke="#0842D4" stroke-width="2.5" stroke-linecap="round" />
      <g id="Path">
        <use xlink:href="#path_1" fill="none" stroke="#0842D4" stroke-width="5" stroke-linecap="round" />
        <use stroke="none" fill="#D3D3D3" xlink:href="#path_1" fill-rule="evenodd" />
      </g>
      <g id="Path">
        <use xlink:href="#path_2" fill="none" stroke="#0842D4" stroke-width="5" stroke-linecap="round" />
        <use stroke="none" fill="#D3D3D3" xlink:href="#path_2" fill-rule="evenodd" />
      </g>
    </g>
    <g id="Group" transform="translate(8 56)">
      <path d="M256.765 19.8277C256.286 19.4345 256.047 18.5243 256.047 17.0971C256.047 15.0583 257.064 13.4928 259.097 12.4005C261.131 11.3083 264.142 10.7622 268.129 10.7622L271.279 10.7622C279.228 10.7622 283.203 12.9903 283.203 17.4466C283.203 19.2233 282.465 20.8326 280.989 22.2743C279.514 23.7161 277.487 25.1505 274.908 26.5777L274.908 27.3641L283.561 27.0146L283.561 26.534C283.269 26.3593 283.063 26.1991 282.943 26.0535C282.824 25.9078 282.764 25.6894 282.764 25.3981C282.764 25.1068 282.97 24.0656 283.382 22.2743C283.794 20.4831 284 18.6991 284 16.9224C284 12.3204 282.724 8.65781 280.172 5.9345C277.62 3.2112 273.998 1.84955 269.305 1.84955C264.613 1.84955 261.098 3.15295 258.758 5.75974C256.419 8.36654 255.249 12.0437 255.249 16.7913C255.249 18.2185 255.488 19.9442 255.967 21.9685C256.445 23.9928 256.685 25.2088 256.685 25.6166C256.685 26.5777 256.353 27.3205 255.688 27.8447L255.688 28.5001L266.933 28.5001L266.933 30.2039L267.81 30.2039L267.81 17.6214L266.933 17.6214L266.933 20.4175L259.197 20.4175C258.054 20.4175 257.243 20.2209 256.765 19.8277L256.765 19.8277ZM257.163 170.687C256.445 169.566 256.086 168.277 256.086 166.82C256.086 164.607 256.951 162.502 258.678 160.507C260.406 158.512 262.427 156.874 264.74 155.592L264.74 154.849L255.249 155.287L255.249 155.898C256.047 156.277 256.445 156.67 256.445 157.078C256.445 157.31 256.246 158.498 255.847 160.638C255.448 162.779 255.249 164.68 255.249 166.34C255.249 169.544 256.12 172.129 257.861 174.094C259.602 176.061 261.909 177.044 264.779 177.044C266.534 177.044 268.049 176.651 269.325 175.864C269.884 175.544 270.396 175.1 270.861 174.532C271.326 173.964 271.711 173.425 272.017 172.915C272.323 172.406 272.615 171.75 272.894 170.949C273.174 170.148 273.393 169.478 273.552 168.939C273.712 168.4 274.004 167.272 274.43 165.553C274.855 163.835 275.407 162.386 276.084 161.206C276.762 160.027 277.733 159.437 278.995 159.437C280.258 159.437 281.269 159.932 282.026 160.922C282.784 161.913 283.163 163.303 283.163 165.095C283.163 166.886 282.465 168.546 281.069 170.075C279.673 171.604 277.819 173.068 275.506 174.466L275.506 175.165L283.561 174.859L283.561 174.379C283.03 174.058 282.764 173.694 282.764 173.286C282.764 172.879 282.97 171.838 283.382 170.163C283.794 168.488 284 166.879 284 165.335C284 162.131 283.149 159.604 281.448 157.755C279.747 155.905 277.713 154.98 275.347 154.98C272.449 154.98 270.309 155.884 268.927 157.689C268.236 158.592 267.677 159.546 267.252 160.551C266.827 161.556 266.328 163.172 265.757 165.401C265.185 167.628 264.514 169.347 263.743 170.556C262.972 171.764 261.862 172.369 260.413 172.369C258.964 172.369 257.881 171.808 257.163 170.687L257.163 170.687ZM265.019 78.1748L256.406 81.3641L256.406 78.2621L255.648 78.2621L255.648 92.5486L256.406 92.5486L256.406 90.5388L283.801 79.5291L283.801 75.9466L256.406 64.8058L256.406 62.7524L255.648 62.7524L255.648 69.4369L256.406 69.4369L256.406 66.1602L265.019 69.5243L265.019 78.1748L265.019 78.1748ZM269.764 43.6602L269.764 45.9758C269.764 47.1117 269.418 47.8908 268.727 48.3131C268.036 48.7355 266.946 48.9466 265.457 48.9466L262.546 48.9466C259.729 48.9466 257.808 49.4491 256.784 50.4539C255.761 51.4588 255.249 53.1554 255.249 55.5437C255.249 57.9321 255.634 59.5268 256.405 60.3277C257.176 61.1287 258.692 61.6894 260.951 62.0097L261.031 61.267C259.622 61.0049 258.698 60.7209 258.26 60.4151C257.821 60.1093 257.602 59.6942 257.602 59.1699C257.602 58.6457 257.841 58.3035 258.32 58.1432C258.798 57.983 259.729 57.903 261.111 57.903L263.224 57.903C265.537 57.903 267.185 57.4369 268.169 56.5049C269.153 55.5729 269.79 53.9272 270.083 51.568L270.203 51.568C270.389 54.0729 270.967 55.937 271.937 57.1603C272.908 58.3835 274.522 58.9952 276.782 58.9952C279.042 58.9952 280.69 58.2962 281.727 56.8981C282.232 56.2573 282.664 55.1432 283.023 53.5559C283.382 51.9685 283.561 49.2816 283.561 45.4952L283.561 32.301L282.804 32.301L282.804 35.1408L256.405 35.1408L256.405 32.301L255.648 32.301L255.648 46.5L256.405 46.5L256.405 43.6602L269.764 43.6602L269.764 43.6602ZM258.638 118.937C260.792 122.316 264.607 124.005 270.083 124.005C274.895 124.005 278.344 122.607 280.431 119.811C282.518 117.015 283.561 112.82 283.561 107.228L283.561 93.7282L282.804 93.7282L282.804 96.6117L256.405 96.6117L256.405 93.7282L255.648 93.7282L255.648 106.092C255.648 111.539 256.645 115.82 258.638 118.937L258.638 118.937ZM283.561 149.432L283.561 126.714L282.684 126.714L282.684 129.291L256.525 129.291L256.525 126.714L255.648 126.714L255.648 150.699L264.341 151.048L264.341 150.175C262.054 149.476 260.18 148.187 258.718 146.308C257.256 144.43 256.525 142.15 256.525 139.471L256.525 137.811L269.325 137.811L269.325 138.859C269.325 140.403 268.9 141.619 268.049 142.507C267.198 143.396 265.776 144.102 263.782 144.626L263.782 145.369L275.586 145.369L275.586 144.714C273.991 144.335 272.721 143.68 271.778 142.747C270.834 141.816 270.362 140.665 270.362 139.296L270.362 137.811L282.684 137.811L282.684 139.34C282.684 141.932 282.185 143.898 281.189 145.238C280.192 146.578 278.351 147.859 275.666 149.082L275.666 149.869L283.561 149.432L283.561 149.432ZM270.522 43.6602L282.804 43.6602L282.804 45.102C282.804 46.7913 282.465 48.0219 281.787 48.7937C281.109 49.5656 279.72 49.9515 277.62 49.9515L276.464 49.9515C274.363 49.9515 272.848 49.5511 271.918 48.7501C270.987 47.9491 270.522 46.7185 270.522 45.0583L270.522 43.6602L270.522 43.6602ZM256.405 106.791L256.405 105.131L282.804 105.131L282.804 106.179C282.804 108.364 282.511 110.053 281.926 111.247C280.703 113.752 277.101 115.005 271.12 115.005L268.807 115.005C264.341 115.005 261.157 114.371 259.257 113.104C257.356 111.837 256.405 109.733 256.405 106.791L256.405 106.791ZM265.896 69.9175L276.344 74.0243L265.896 77.8253L265.896 69.9175L265.896 69.9175Z" id="Shape" fill="#EFEFEF" stroke="none" />
      <path d="M214.017 176.418C207.876 181.136 200.818 183.495 192.842 183.495C180.72 183.495 169.196 177.816 158.27 166.456C147.343 155.097 138.371 141.816 131.353 126.612L127.286 126.612L129.678 189L133.028 189C135.101 183.757 137.255 181.136 139.488 181.136C140.764 181.136 147.264 182.447 158.987 185.068C170.711 187.69 181.119 189 190.211 189C207.756 189 221.912 183.277 232.679 171.831C243.446 160.384 248.829 145.224 248.829 126.35C248.829 114.816 246.676 104.854 242.369 96.4661C240.615 92.7963 238.182 89.4322 235.072 86.3739C231.961 83.3157 229.01 80.7816 226.219 78.7719C223.428 76.7622 219.839 74.8399 215.453 73.0049C211.066 71.17 207.398 69.7282 204.447 68.6797C201.496 67.6312 195.315 65.7088 185.904 62.9127C176.493 60.1166 168.558 56.4904 162.098 52.034C155.638 47.5777 152.408 41.1991 152.408 32.8981C152.408 24.5971 155.119 17.9563 160.543 12.9757C165.966 7.99516 173.582 5.50486 183.392 5.50486C193.201 5.50486 202.293 10.0922 210.667 19.267C219.041 28.4418 227.057 40.6311 234.713 55.835L238.541 55.835L236.866 2.88351L234.234 2.88351C232.48 6.37866 230.486 8.12623 228.253 8.12623C226.02 8.12623 220.317 6.77186 211.146 4.06311C201.974 1.35437 193.162 2.53635e-09 184.708 2.53635e-09C167.162 2.53635e-09 153.325 5.59224 143.196 16.7767C133.068 27.9612 128.003 41.3302 128.003 56.8835C128.003 75.9321 132.948 90.0001 142.837 99.0875C147.782 103.631 153.006 107.301 158.509 110.097C164.012 112.893 172.864 116.17 185.067 119.927C197.269 123.685 206.68 128.097 213.299 133.165C219.919 138.233 223.229 145.529 223.229 155.054C223.229 164.578 220.158 171.699 214.017 176.418L214.017 176.418ZM113.648 2.88353L35.8888 2.88353L35.8888 7.86411L53.8332 7.86411L53.8332 139.981C53.8332 158.33 52.9161 170.257 51.0818 175.762C49.2475 181.267 45.1402 184.02 38.76 184.02C35.2508 184.02 32.4196 183.189 30.2663 181.529C28.1129 179.869 27.0363 177.859 27.0363 175.5C27.0363 173.141 27.754 170.651 29.1896 168.029L38.5207 168.029C40.2752 162.787 41.1525 157.587 41.1525 152.432C41.1525 147.277 39.5176 142.864 36.2477 139.194C32.9779 135.525 28.0332 133.689 21.4137 133.689C14.7942 133.689 9.57036 135.83 5.74222 140.112C1.91407 144.393 0 150.291 0 157.806C0 167.592 3.78827 175.195 11.3648 180.612C18.9413 186.029 29.1896 188.738 42.1096 188.738C61.5693 188.738 76.1641 183.364 85.8939 172.617C95.6237 161.869 100.489 144.699 100.489 121.107L100.489 7.86411L113.648 7.86411L113.648 2.88353L113.648 2.88353Z" id="Shape" fill="#EFEFEF" stroke="none" />
    </g>
  </g>
</svg>